<mxfile host="Electron" modified="2024-04-22T14:29:48.182Z" agent="Mozilla/5.0 (Windows NT 10.0; Win64; x64) AppleWebKit/537.36 (KHTML, like Gecko) draw.io/22.1.2 Chrome/114.0.5735.289 Electron/25.9.4 Safari/537.36" etag="CMr-TeGdgFFtpD48cqbs" version="22.1.2" type="device">
  <diagram name="Page-1" id="5ZUWWx2ZWSGOVmF1ABsx">
    <mxGraphModel dx="1646" dy="944" grid="1" gridSize="10" guides="1" tooltips="1" connect="1" arrows="1" fold="1" page="1" pageScale="1" pageWidth="850" pageHeight="1100" math="0" shadow="0">
      <root>
        <mxCell id="0" />
        <mxCell id="1" parent="0" />
        <mxCell id="n4UaO151QtlMNPw-WPVV-30" style="edgeStyle=orthogonalEdgeStyle;rounded=0;orthogonalLoop=1;jettySize=auto;html=1;exitX=1;exitY=0.25;exitDx=0;exitDy=0;entryX=0;entryY=0.5;entryDx=0;entryDy=0;" parent="1" source="n4UaO151QtlMNPw-WPVV-27" target="n4UaO151QtlMNPw-WPVV-28" edge="1">
          <mxGeometry relative="1" as="geometry" />
        </mxCell>
        <mxCell id="n4UaO151QtlMNPw-WPVV-31" style="edgeStyle=orthogonalEdgeStyle;rounded=0;orthogonalLoop=1;jettySize=auto;html=1;exitX=1;exitY=0.75;exitDx=0;exitDy=0;entryX=0;entryY=0.5;entryDx=0;entryDy=0;" parent="1" source="n4UaO151QtlMNPw-WPVV-27" target="n4UaO151QtlMNPw-WPVV-29" edge="1">
          <mxGeometry relative="1" as="geometry" />
        </mxCell>
        <mxCell id="n4UaO151QtlMNPw-WPVV-36" style="edgeStyle=orthogonalEdgeStyle;rounded=0;orthogonalLoop=1;jettySize=auto;html=1;exitX=0.5;exitY=0;exitDx=0;exitDy=0;" parent="1" source="n4UaO151QtlMNPw-WPVV-27" target="n4UaO151QtlMNPw-WPVV-35" edge="1">
          <mxGeometry relative="1" as="geometry" />
        </mxCell>
        <mxCell id="n4UaO151QtlMNPw-WPVV-43" style="edgeStyle=orthogonalEdgeStyle;rounded=0;orthogonalLoop=1;jettySize=auto;html=1;exitX=1;exitY=0.5;exitDx=0;exitDy=0;" parent="1" source="n4UaO151QtlMNPw-WPVV-27" target="n4UaO151QtlMNPw-WPVV-42" edge="1">
          <mxGeometry relative="1" as="geometry" />
        </mxCell>
        <mxCell id="n4UaO151QtlMNPw-WPVV-27" value="Aggregate&lt;br&gt;Repository" style="rounded=0;whiteSpace=wrap;html=1;fillColor=#dae8fc;strokeColor=#6c8ebf;" parent="1" vertex="1">
          <mxGeometry x="720" y="440" width="120" height="60" as="geometry" />
        </mxCell>
        <mxCell id="n4UaO151QtlMNPw-WPVV-33" style="edgeStyle=orthogonalEdgeStyle;rounded=0;orthogonalLoop=1;jettySize=auto;html=1;exitX=0.5;exitY=0;exitDx=0;exitDy=0;" parent="1" source="n4UaO151QtlMNPw-WPVV-28" target="n4UaO151QtlMNPw-WPVV-32" edge="1">
          <mxGeometry relative="1" as="geometry" />
        </mxCell>
        <mxCell id="e2Y9nZhiCjC6lD_71Vgv-6" style="edgeStyle=orthogonalEdgeStyle;rounded=0;orthogonalLoop=1;jettySize=auto;html=1;exitX=1;exitY=0.5;exitDx=0;exitDy=0;" parent="1" source="n4UaO151QtlMNPw-WPVV-28" target="e2Y9nZhiCjC6lD_71Vgv-5" edge="1">
          <mxGeometry relative="1" as="geometry" />
        </mxCell>
        <mxCell id="n4UaO151QtlMNPw-WPVV-28" value="Event Store" style="rounded=0;whiteSpace=wrap;html=1;fillColor=#fff2cc;strokeColor=#d6b656;" parent="1" vertex="1">
          <mxGeometry x="920" y="340" width="120" height="60" as="geometry" />
        </mxCell>
        <mxCell id="e2Y9nZhiCjC6lD_71Vgv-4" style="edgeStyle=orthogonalEdgeStyle;rounded=0;orthogonalLoop=1;jettySize=auto;html=1;exitX=1;exitY=0.5;exitDx=0;exitDy=0;" parent="1" source="n4UaO151QtlMNPw-WPVV-29" target="e2Y9nZhiCjC6lD_71Vgv-3" edge="1">
          <mxGeometry relative="1" as="geometry" />
        </mxCell>
        <mxCell id="n4UaO151QtlMNPw-WPVV-29" value="Snapshot Store" style="rounded=0;whiteSpace=wrap;html=1;fillColor=#d5e8d4;strokeColor=#82b366;" parent="1" vertex="1">
          <mxGeometry x="920" y="540" width="120" height="60" as="geometry" />
        </mxCell>
        <mxCell id="n4UaO151QtlMNPw-WPVV-32" value="Event Extractor" style="rounded=0;whiteSpace=wrap;html=1;fillColor=#fff2cc;strokeColor=#d6b656;" parent="1" vertex="1">
          <mxGeometry x="920" y="230" width="120" height="60" as="geometry" />
        </mxCell>
        <mxCell id="n4UaO151QtlMNPw-WPVV-35" value="Aggregate&lt;br&gt;Extractor" style="rounded=0;whiteSpace=wrap;html=1;fillColor=#dae8fc;strokeColor=#6c8ebf;" parent="1" vertex="1">
          <mxGeometry x="720" y="320" width="120" height="60" as="geometry" />
        </mxCell>
        <mxCell id="e2Y9nZhiCjC6lD_71Vgv-7" style="edgeStyle=orthogonalEdgeStyle;rounded=0;orthogonalLoop=1;jettySize=auto;html=1;exitX=1;exitY=0.5;exitDx=0;exitDy=0;" parent="1" source="n4UaO151QtlMNPw-WPVV-38" target="n4UaO151QtlMNPw-WPVV-27" edge="1">
          <mxGeometry relative="1" as="geometry" />
        </mxCell>
        <mxCell id="n4UaO151QtlMNPw-WPVV-38" value="Aggregate" style="rounded=0;whiteSpace=wrap;html=1;fillColor=#f5f5f5;strokeColor=#666666;fontColor=#333333;" parent="1" vertex="1">
          <mxGeometry x="560" y="440" width="120" height="60" as="geometry" />
        </mxCell>
        <mxCell id="e2Y9nZhiCjC6lD_71Vgv-2" style="edgeStyle=orthogonalEdgeStyle;rounded=0;orthogonalLoop=1;jettySize=auto;html=1;exitX=1;exitY=0.5;exitDx=0;exitDy=0;" parent="1" source="n4UaO151QtlMNPw-WPVV-42" target="e2Y9nZhiCjC6lD_71Vgv-1" edge="1">
          <mxGeometry relative="1" as="geometry" />
        </mxCell>
        <mxCell id="n4UaO151QtlMNPw-WPVV-42" value="Event Emitter&lt;br&gt;(Adapter)" style="rounded=0;whiteSpace=wrap;html=1;fillColor=#e1d5e7;strokeColor=#9673a6;" parent="1" vertex="1">
          <mxGeometry x="920" y="440" width="120" height="60" as="geometry" />
        </mxCell>
        <mxCell id="n4UaO151QtlMNPw-WPVV-44" value="Entity Diagram" style="shape=umlFrame;whiteSpace=wrap;html=1;pointerEvents=0;width=120;height=30;fontStyle=1;strokeWidth=2;" parent="1" vertex="1">
          <mxGeometry x="520" y="200" width="760" height="440" as="geometry" />
        </mxCell>
        <mxCell id="e2Y9nZhiCjC6lD_71Vgv-1" value="3rd Party&lt;br&gt;Event Library or&lt;br&gt;Message Bus" style="rounded=0;whiteSpace=wrap;html=1;fillColor=#ffe6cc;strokeColor=#d79b00;" parent="1" vertex="1">
          <mxGeometry x="1120" y="440" width="120" height="60" as="geometry" />
        </mxCell>
        <mxCell id="e2Y9nZhiCjC6lD_71Vgv-3" value="Snapshot&lt;br&gt;Store" style="shape=cylinder3;whiteSpace=wrap;html=1;boundedLbl=1;backgroundOutline=1;size=15;" parent="1" vertex="1">
          <mxGeometry x="1150" y="530" width="60" height="80" as="geometry" />
        </mxCell>
        <mxCell id="e2Y9nZhiCjC6lD_71Vgv-5" value="Event&lt;br&gt;Store" style="shape=cylinder3;whiteSpace=wrap;html=1;boundedLbl=1;backgroundOutline=1;size=15;" parent="1" vertex="1">
          <mxGeometry x="1150" y="330" width="60" height="80" as="geometry" />
        </mxCell>
      </root>
    </mxGraphModel>
  </diagram>
</mxfile>
